<?xml version="1.0" standalone="no"?>
<!DOCTYPE svg PUBLIC "-//W3C//DTD SVG 20010904//EN"
 "http://www.w3.org/TR/2001/REC-SVG-20010904/DTD/svg10.dtd">
<svg version="1.0" xmlns="http://www.w3.org/2000/svg"
 width="572.000000pt" height="121.000000pt" viewBox="0 0 572.000000 121.000000"
 preserveAspectRatio="xMidYMid meet">

<g transform="translate(0.000000,121.000000) scale(0.100000,-0.100000)"
fill="#000000" stroke="none">
<path d="M2037 1051 c-42 -28 -56 -52 -57 -100 0 -37 5 -49 36 -77 30 -29 42
-34 85 -34 84 0 139 44 139 111 0 93 -121 152 -203 100z"/>
<path d="M397 933 c-3 -5 -37 -82 -77 -173 -69 -158 -89 -202 -140 -315 -12
-27 -40 -90 -62 -140 -33 -77 -46 -107 -66 -147 -2 -5 49 -8 113 -8 l116 0 15
38 c8 20 22 54 31 75 l16 37 170 -2 171 -3 30 -72 30 -73 118 0 c66 0 118 3
116 8 -31 64 -108 234 -108 238 0 2 -12 29 -26 61 -14 32 -32 72 -39 88 -8 17
-32 70 -54 118 -23 49 -41 91 -41 93 0 4 -23 57 -62 142 l-20 42 -113 0 c-63
0 -116 -3 -118 -7z m169 -342 c24 -62 44 -117 44 -122 0 -11 -187 -12 -193 -1
-7 11 86 243 96 239 5 -1 28 -53 53 -116z"/>
<path d="M1548 823 l-3 -78 -45 -3 -45 -3 2 -77 1 -77 46 -3 46 -3 0 -142 c0
-157 11 -198 66 -248 61 -55 193 -75 288 -43 37 13 46 20 41 33 -4 9 -11 30
-17 46 -28 87 -26 84 -76 79 -79 -8 -86 4 -90 151 l-4 124 74 3 73 3 3 77 3
77 -73 3 -73 3 -3 78 -3 77 -104 0 -104 0 -3 -77z"/>
<path d="M4628 823 l-3 -78 -42 -3 -43 -3 0 -74 0 -74 43 -3 42 -3 5 -150 c6
-164 20 -210 75 -254 33 -25 120 -51 172 -51 43 0 143 26 143 38 0 4 -9 37
-21 73 l-21 65 -53 -4 c-78 -6 -86 11 -83 164 l3 119 67 3 66 3 4 74 3 75 -72
0 -73 0 0 80 0 80 -105 0 -104 0 -3 -77z"/>
<path d="M1315 768 c-16 -6 -45 -21 -62 -35 l-33 -24 0 30 0 31 -105 0 -105 0
0 -310 0 -310 110 0 110 0 0 173 c0 153 2 176 20 204 25 41 68 63 125 63 l45
0 0 95 0 95 -37 -1 c-21 0 -51 -5 -68 -11z"/>
<path d="M2639 766 c-19 -7 -46 -20 -60 -29 -32 -23 -39 -21 -39 8 l0 25 -100
0 -100 0 0 -310 0 -310 105 0 105 0 0 158 c1 178 8 225 43 260 33 32 115 42
151 18 37 -24 46 -74 46 -263 l0 -173 105 0 105 0 0 216 c0 142 -4 231 -12
258 -16 54 -93 131 -144 145 -52 15 -161 13 -205 -3z"/>
<path d="M3240 766 c-37 -10 -105 -40 -118 -51 -3 -3 56 -135 64 -144 1 -2 25
7 51 20 100 48 220 33 247 -33 8 -18 12 -36 10 -40 -3 -5 -44 -8 -92 -8 -168
-1 -266 -39 -299 -119 -22 -52 -12 -123 24 -174 70 -101 261 -116 356 -29 l27
26 0 -32 0 -32 100 0 100 0 0 203 c0 223 -8 271 -55 333 -14 19 -50 46 -78 61
-46 24 -65 27 -172 30 -77 1 -136 -2 -165 -11z m258 -389 c7 -36 -19 -76 -64
-97 -38 -19 -49 -20 -79 -10 -59 20 -73 74 -28 110 22 17 38 20 97 18 59 -3
71 -6 74 -21z"/>
<path d="M5212 766 c-64 -16 -132 -46 -132 -58 0 -7 57 -126 64 -135 1 -1 22
7 46 19 90 45 217 33 245 -22 28 -54 23 -60 -57 -60 -220 -1 -314 -50 -326
-170 -9 -95 36 -158 136 -191 92 -30 198 -13 246 40 26 29 36 26 36 -9 l0 -30
101 0 101 0 -4 213 c-3 196 -5 216 -26 263 -27 60 -59 93 -120 124 -54 28
-227 37 -310 16z m240 -406 c-9 -86 -118 -128 -180 -69 -30 27 -28 63 5 89 23
18 38 20 102 18 l76 -3 -3 -35z"/>
<path d="M2000 460 l0 -310 110 0 110 0 0 310 0 310 -110 0 -110 0 0 -310z"/>
<path d="M3822 558 c6 -245 16 -296 75 -353 42 -41 127 -75 186 -75 46 0 120
24 156 52 32 24 41 23 41 -7 l0 -25 100 0 100 0 0 310 0 310 -104 0 -104 0 -4
-182 c-3 -207 -11 -233 -74 -263 -45 -21 -92 -14 -125 21 -23 25 -24 30 -27
225 l-3 199 -111 0 -110 0 4 -212z"/>
</g>
</svg>
