<?xml version="1.0" standalone="no"?>
<!DOCTYPE svg PUBLIC "-//W3C//DTD SVG 20010904//EN"
 "http://www.w3.org/TR/2001/REC-SVG-20010904/DTD/svg10.dtd">
<svg version="1.0" xmlns="http://www.w3.org/2000/svg"
 width="572.000000pt" height="121.000000pt" viewBox="0 0 572.000000 121.000000"
 preserveAspectRatio="xMidYMid meet">

<g transform="translate(0.000000,121.000000) scale(0.100000,-0.100000)"
fill="#000000" stroke="none">
<path d="M2075 967 c-85 -48 -88 -145 -5 -188 47 -26 100 -24 141 4 43 29 61
63 55 105 -6 43 -20 58 -70 83 -51 24 -72 24 -121 -4z"/>
<path d="M262 472 c-95 -213 -172 -391 -172 -395 0 -4 49 -7 109 -7 l109 0 29
73 29 72 176 3 175 2 30 -72 29 -73 112 -3 c62 -1 112 1 112 6 0 5 -6 22 -14
38 -8 16 -42 92 -76 169 -34 77 -68 154 -75 170 -26 56 -126 280 -153 342
l-27 63 -111 0 -111 0 -171 -388z m288 165 c0 -1 23 -58 50 -126 28 -68 50
-126 50 -128 0 -1 -47 -3 -105 -3 -59 0 -105 4 -105 9 0 19 95 251 102 251 5
0 8 -1 8 -3z"/>
<path d="M1578 743 l-3 -78 -42 -3 -43 -3 0 -74 0 -74 43 -3 42 -3 6 -150 c6
-167 19 -209 78 -253 66 -48 190 -62 280 -31 36 13 37 16 8 94 l-22 59 -52 -3
c-76 -4 -84 13 -81 165 l3 119 73 3 72 3 0 74 0 75 -75 0 -75 0 0 80 0 80
-105 0 -104 0 -3 -77z"/>
<path d="M1360 688 c-19 -5 -52 -23 -72 -39 -20 -16 -39 -29 -42 -29 -3 0 -6
16 -6 35 l0 35 -100 0 -100 0 0 -310 0 -310 105 0 105 0 0 153 c0 178 8 214
56 256 30 27 43 31 89 31 l55 0 0 95 0 95 -27 -1 c-16 0 -44 -5 -63 -11z"/>
<path d="M2672 682 c-28 -10 -60 -26 -70 -35 -26 -24 -32 -21 -32 13 l0 30
-100 0 -100 0 0 -310 0 -310 105 0 105 0 0 176 c0 140 3 183 16 209 22 47 57
67 117 67 40 0 54 -5 76 -26 l26 -26 3 -200 3 -200 106 0 105 0 -4 228 c-4
214 -5 230 -27 272 -43 84 -101 120 -205 126 -53 4 -84 0 -124 -14z"/>
<path d="M2030 380 l0 -310 105 0 105 0 0 310 0 310 -105 0 -105 0 0 -310z"/>
<path d="M3194 650 c-36 -14 -36 -26 -3 -89 22 -42 36 -58 46 -54 11 4 11 8 3
13 -8 5 -11 30 -8 74 3 68 1 72 -38 56z"/>
<path d="M3200 377 c-41 -21 -70 -74 -70 -129 0 -74 45 -148 89 -148 6 0 11
56 13 145 2 80 1 145 -2 145 -3 0 -16 -6 -30 -13z"/>
</g>
</svg>
